<svg xmlns="http://www.w3.org/2000/svg" width="24" height="26" viewBox="0 0 24 26"><defs><style>.a{opacity:0.7;}.b{fill:#fff;}.c{fill:#0653b6;stroke:#fff;stroke-width:1.2px;}.d{stroke:none;}.e{fill:none;}</style></defs><g class="a"><path class="b" d="M409.326,340.433a5.564,5.564,0,0,0-11.127,0h-3.336V352.15a2.74,2.74,0,0,0,2.739,2.74h12.3a2.757,2.757,0,0,0,2.757-2.757v-11.7Zm-5.564-3.6a3.629,3.629,0,0,1,3.623,3.6H400.14A3.628,3.628,0,0,1,403.762,336.83Z" transform="translate(-394.863 -334.89)"/><g transform="translate(9 11)"><g class="c"><circle class="d" cx="7.5" cy="7.5" r="7.5"/><circle class="e" cx="7.5" cy="7.5" r="6.9"/></g></g><g transform="translate(13 15.1)"><rect class="b" width="1.4" height="7" transform="translate(7 2.9) rotate(90)"/><rect class="b" width="1.4" height="7" transform="translate(4.1 7) rotate(180)"/></g></g></svg>