<svg xmlns="http://www.w3.org/2000/svg" width="29.001" height="25.999" viewBox="0 0 29.001 25.999"><defs><style>.a{opacity:0;}.b{isolation:isolate;}.c{fill:#d9d9d9;}.d,.f{fill:#fff;stroke-width:1.2px;}.d{stroke:#d9d9d9;}.e{fill:#1c69d4;}.f{stroke:#1c69d4;}.g{stroke:none;}.h{fill:none;}</style></defs><g class="a" transform="translate(-668.999 -936)"><g class="b" transform="translate(-6618.91 1000.004)"><circle class="c" cx="1.703" cy="1.703" r="1.703" transform="translate(7304.661 -41.755)"/><circle class="c" cx="1.703" cy="1.703" r="1.703" transform="translate(7294.24 -41.318) rotate(-13.283)"/><path class="c" d="M7310.776-54.8h-17.454L7292.681-58h-4.771v1.728h3.347l.295,1.479,1.6,8,.681,3.4.153.766h14.69l.154-.768.191-.959h-13.61l-.488-2.442h14.588l1.6-8Z"/></g><g transform="translate(-2003.1 -3546.1)"><g class="d" transform="translate(2686.1 4482.101)"><circle class="g" cx="7.5" cy="7.5" r="7.5"/><circle class="h" cx="7.5" cy="7.5" r="6.9"/></g></g><g transform="translate(287 -11)"><rect class="c" width="1.4" height="7" transform="translate(407 954) rotate(90)"/><rect class="c" width="1.4" height="7" transform="translate(404.1 958.1) rotate(180)"/></g></g><g transform="translate(-668.999 -1257)"><g class="b" transform="translate(-6618.91 1321.004)"><circle class="e" cx="1.703" cy="1.703" r="1.703" transform="translate(7304.661 -41.755)"/><circle class="e" cx="1.703" cy="1.703" r="1.703" transform="translate(7294.24 -41.318) rotate(-13.283)"/><path class="e" d="M7310.776-54.8h-17.454L7292.681-58h-4.771v1.728h3.347l.295,1.479,1.6,8,.681,3.4.153.766h14.69l.154-.768.191-.959h-13.61l-.488-2.442h14.588l1.6-8Z"/></g><g transform="translate(-2003.1 -3225.1)"><g class="f" transform="translate(2686.1 4482.101)"><circle class="g" cx="7.5" cy="7.5" r="7.5"/><circle class="h" cx="7.5" cy="7.5" r="6.9"/></g></g><g transform="translate(287 310)"><rect class="e" width="1.4" height="7" transform="translate(407 954) rotate(90)"/><rect class="e" width="1.4" height="7" transform="translate(404.1 958.1) rotate(180)"/></g></g></svg>