<svg xmlns="http://www.w3.org/2000/svg" width="70.488" height="41.634" viewBox="0 0 70.488 41.634">
  <g id="download" transform="translate(0 -100.698)">
    <g id="Grupo_1" data-name="Grupo 1" transform="translate(0 100.698)">
      <path id="Trazado_1" data-name="Trazado 1" d="M69.362,104.178l-2.309-2.325a3.865,3.865,0,0,0-5.454,0L35.26,128.193,8.891,101.824a3.866,3.866,0,0,0-5.453,0l-2.31,2.311a3.859,3.859,0,0,0,0,5.453l31.4,31.509a3.941,3.941,0,0,0,2.734,1.237h.012A3.94,3.94,0,0,0,38,141.1l31.366-31.423a3.894,3.894,0,0,0,1.127-2.754A3.856,3.856,0,0,0,69.362,104.178Z" transform="translate(0 -100.698)"/>
    </g>
  </g>
</svg>
